<svg height="500%" width="300%" viewBox="0 0 300 500" x="0"   y="0"    preserveAspectRatio="xMinYMin"><rect x="75" y="30" height="300.000000" width="500.000000" style="stroke:#000000; fill: #ffffff" /><rect x="175" y="38" height="9.000000" width="9.000000" style="stroke:#000000; fill: #ffffff" /><rect x="175" y="313" height="9.000000" width="9.000000" style="stroke:#000000; fill: #ffffff" /><rect x="555" y="38" height="9.000000" width="9.000000" style="stroke:#000000; fill: #ffffff" /><rect x="555" y="313" height="9.000000" width="9.000000" style="stroke:#000000; fill: #ffffff" /><line x1="65" y1="30" x2="65" y2="330" style="stroke:#000000; fill: #ffffff" /><line x1="62" y1="30" x2="68" y2="30" style="stroke:#000000; fill: #ffffff" /><line x1="62" y1="330" x2="68" y2="330" style="stroke:#000000; fill: #ffffff" /><text x="37" y="180" style="text-anchor: middle; font-size: 0.7rem">"300.0"</text><line x1="75" y1="340" x2="575" y2="340" style="stroke:#000000; fill: #ffffff" /><line x1="75" y1="337" x2="75" y2="343" style="stroke:#000000; fill: #ffffff" /><line x1="575" y1="337" x2="575" y2="343" style="stroke:#000000; fill: #ffffff" /><text x="325" y="355" style="text-anchor: middle; font-size: 0.7rem">"500.0"</text><line x1="125" y1="40" x2="525" y2="320" style="stroke:#000000; stroke-dasharray:5,5; fill: #ffffff" /><line x1="125" y1="320" x2="525" y2="40" style="stroke:#000000; stroke-dasharray:5,5; fill: #ffffff" /><rect x="75" y="40" height="5.000000" width="500.000000" style="stroke:#000000; fill: #ffffff" /><rect x="75" y="315" height="5.000000" width="500.000000" style="stroke:#000000; fill: #ffffff" /><line x1="75" y1="20" x2="125" y2="20" style="stroke:#000000; fill: #ffffff" /><line x1="75" y1="23" x2="75" y2="17" style="stroke:#000000; fill: #ffffff" /><line x1="125" y1="17" x2="125" y2="23" style="stroke:#000000; fill: #ffffff" /><text x="100" y="10" style="text-anchor: middle; font-size: 0.7rem">"50.0"</text><rect x="75" y="30" height="300.000000" width="3.000000" style="stroke:#000000; fill: #ffffff" /><line x1="125" y1="20" x2="175" y2="20" style="stroke:#000000; fill: #ffffff" /><line x1="125" y1="23" x2="125" y2="17" style="stroke:#000000; fill: #ffffff" /><line x1="175" y1="17" x2="175" y2="23" style="stroke:#000000; fill: #ffffff" /><text x="150" y="10" style="text-anchor: middle; font-size: 0.7rem">"50.0"</text><rect x="125" y="30" height="300.000000" width="3.000000" style="stroke:#000000; fill: #ffffff" /><line x1="175" y1="20" x2="225" y2="20" style="stroke:#000000; fill: #ffffff" /><line x1="175" y1="23" x2="175" y2="17" style="stroke:#000000; fill: #ffffff" /><line x1="225" y1="17" x2="225" y2="23" style="stroke:#000000; fill: #ffffff" /><text x="200" y="10" style="text-anchor: middle; font-size: 0.7rem">"50.0"</text><rect x="175" y="30" height="300.000000" width="3.000000" style="stroke:#000000; fill: #ffffff" /><line x1="225" y1="20" x2="275" y2="20" style="stroke:#000000; fill: #ffffff" /><line x1="225" y1="23" x2="225" y2="17" style="stroke:#000000; fill: #ffffff" /><line x1="275" y1="17" x2="275" y2="23" style="stroke:#000000; fill: #ffffff" /><text x="250" y="10" style="text-anchor: middle; font-size: 0.7rem">"50.0"</text><rect x="225" y="30" height="300.000000" width="3.000000" style="stroke:#000000; fill: #ffffff" /><line x1="275" y1="20" x2="325" y2="20" style="stroke:#000000; fill: #ffffff" /><line x1="275" y1="23" x2="275" y2="17" style="stroke:#000000; fill: #ffffff" /><line x1="325" y1="17" x2="325" y2="23" style="stroke:#000000; fill: #ffffff" /><text x="300" y="10" style="text-anchor: middle; font-size: 0.7rem">"50.0"</text><rect x="275" y="30" height="300.000000" width="3.000000" style="stroke:#000000; fill: #ffffff" /><line x1="325" y1="20" x2="375" y2="20" style="stroke:#000000; fill: #ffffff" /><line x1="325" y1="23" x2="325" y2="17" style="stroke:#000000; fill: #ffffff" /><line x1="375" y1="17" x2="375" y2="23" style="stroke:#000000; fill: #ffffff" /><text x="350" y="10" style="text-anchor: middle; font-size: 0.7rem">"50.0"</text><rect x="325" y="30" height="300.000000" width="3.000000" style="stroke:#000000; fill: #ffffff" /><line x1="375" y1="20" x2="425" y2="20" style="stroke:#000000; fill: #ffffff" /><line x1="375" y1="23" x2="375" y2="17" style="stroke:#000000; fill: #ffffff" /><line x1="425" y1="17" x2="425" y2="23" style="stroke:#000000; fill: #ffffff" /><text x="400" y="10" style="text-anchor: middle; font-size: 0.7rem">"50.0"</text><rect x="375" y="30" height="300.000000" width="3.000000" style="stroke:#000000; fill: #ffffff" /><line x1="425" y1="20" x2="475" y2="20" style="stroke:#000000; fill: #ffffff" /><line x1="425" y1="23" x2="425" y2="17" style="stroke:#000000; fill: #ffffff" /><line x1="475" y1="17" x2="475" y2="23" style="stroke:#000000; fill: #ffffff" /><text x="450" y="10" style="text-anchor: middle; font-size: 0.7rem">"50.0"</text><rect x="425" y="30" height="300.000000" width="3.000000" style="stroke:#000000; fill: #ffffff" /><line x1="475" y1="20" x2="525" y2="20" style="stroke:#000000; fill: #ffffff" /><line x1="475" y1="23" x2="475" y2="17" style="stroke:#000000; fill: #ffffff" /><line x1="525" y1="17" x2="525" y2="23" style="stroke:#000000; fill: #ffffff" /><text x="500" y="10" style="text-anchor: middle; font-size: 0.7rem">"50.0"</text><rect x="475" y="30" height="300.000000" width="3.000000" style="stroke:#000000; fill: #ffffff" /><line x1="525" y1="20" x2="575" y2="20" style="stroke:#000000; fill: #ffffff" /><line x1="525" y1="23" x2="525" y2="17" style="stroke:#000000; fill: #ffffff" /><line x1="575" y1="17" x2="575" y2="23" style="stroke:#000000; fill: #ffffff" /><text x="550" y="10" style="text-anchor: middle; font-size: 0.7rem">"50.0"</text><rect x="525" y="30" height="300.000000" width="3.000000" style="stroke:#000000; fill: #ffffff" /><rect x="575" y="30" height="300.000000" width="3.000000" style="stroke:#000000; fill: #ffffff" /></svg>
